<svg width="302" height="302" viewBox="0 0 302 302" fill="none" xmlns="http://www.w3.org/2000/svg">
<path d="M139.705 129.074C131.421 122.982 127.984 113.414 131.583 107.083C131.777 106.734 131.997 106.386 132.243 106.06C136.858 99.7764 147.688 99.889 156.432 106.312C165.172 112.743 168.518 123.045 163.897 129.327C162.676 130.988 161.024 132.197 159.091 132.966C153.705 135.113 146.138 133.799 139.705 129.074M194.405 54.656C147.875 20.4518 90.2295 19.8434 65.6439 53.2924C63.2714 56.5173 61.2953 59.9425 59.7074 63.524C44.7596 97.1179 63.3401 144.872 105.381 175.771C120.39 186.798 136.554 194.335 152.391 198.359C160.22 200.348 167.974 201.48 175.463 201.754C199.8 202.64 221.404 194.458 234.136 177.133C235.871 174.774 237.395 172.311 238.709 169.753C256.069 136.056 237.645 86.4361 194.405 54.656" fill="#F5AF41"/>
<path d="M181.494 197.846C180.319 197.846 179.135 197.825 177.945 197.781C176.94 197.745 175.934 197.693 174.92 197.625C174.874 194.705 174.89 191.791 175.145 189.31C177.591 189.574 180.016 189.749 182.416 189.837C183.605 189.88 184.787 189.901 185.964 189.901C204.893 189.901 221.944 184.281 234.124 173.01C233.529 173.935 232.903 174.848 232.246 175.743C227.756 181.851 222.105 186.778 215.588 190.524C205.607 195.408 193.958 197.846 181.494 197.846M147.409 192.236C133.998 187.914 120.52 181.097 107.864 171.798C75.4475 147.973 56.9792 114.129 57.0746 84.4787C57.5225 77.3427 59.1282 70.5168 61.9684 64.221C62.2027 64.2795 62.4442 64.322 62.6914 64.3468C58.9733 83.7786 64.3847 106.153 77.4098 126.813C75.4643 133.148 76.383 138.703 80.2142 142.46C82.7724 144.97 86.2362 146.23 89.9643 146.23C90.7339 146.23 91.5156 146.177 92.302 146.069C98.2097 152.411 104.903 158.394 112.332 163.854C113.479 164.697 114.634 165.52 115.795 166.323C115.982 169.923 116.765 173.124 119.08 175.505C121.54 178.033 125.425 179.262 130.941 179.262C131.209 179.262 131.482 179.259 131.755 179.253C133.266 179.221 134.676 178.768 135.884 177.945C140.578 180.165 145.305 182.078 150.029 183.68C149.215 185.944 148.249 188.909 147.409 192.236" fill="#CC8145"/>
<path d="M170.381 128.863C169.316 128.737 168.24 128.565 167.158 128.348C170.371 121.043 166.596 110.873 157.82 104.422C152.994 100.877 147.546 99.1082 142.619 99.1082C138.828 99.1082 135.344 100.156 132.693 102.246C131.896 100.667 131.222 99.0723 130.674 97.4763C133.915 94.5445 138.371 93.0693 143.236 93.0693C148.881 93.0693 155.084 95.0549 160.595 99.055C171.611 107.052 175.829 120.168 170.381 128.863Z" fill="#CC8145"/>
<path d="M162.516 127.149C157.482 125.558 152.4 123.007 147.633 119.503C142.468 115.707 138.213 111.181 135.078 106.375C136.931 104.611 139.585 103.738 142.577 103.738C146.501 103.738 151.005 105.241 155.041 108.207C162.35 113.581 165.534 121.853 162.516 127.149" fill="#BA73C9"/>
<path d="M163.898 129.328H163.902H163.898ZM142.578 103.739C139.029 103.739 135.957 104.965 134.132 107.449C132.357 109.863 132.026 113.179 133.195 116.787C134.456 120.669 137.261 124.361 141.096 127.179C148.78 132.829 158.16 133.167 162.004 127.936C165.85 122.706 162.725 113.856 155.041 108.206C151.006 105.241 146.5 103.739 142.578 103.739M153.515 136.279C148.588 136.279 143.14 134.511 138.314 130.964C133.693 127.566 130.289 123.047 128.728 118.236C127.079 113.151 127.653 108.332 130.347 104.669C135.725 97.3509 148.05 97.2422 157.823 104.423C167.593 111.604 171.169 123.4 165.789 130.718C163.066 134.422 158.566 136.279 153.515 136.279M120.759 30.9475C97.676 30.9475 78.8045 39.3547 67.5389 54.6818C43.7621 87.0311 61.3619 140.502 106.772 173.879C152.182 207.255 208.47 208.091 232.246 175.743C256.022 143.393 238.422 89.9219 193.013 56.5448C170.903 40.2929 145.602 31.2049 121.771 30.9532C121.433 30.9494 121.095 30.9475 120.759 30.9475ZM179.029 204.172C178.674 204.172 178.321 204.17 177.964 204.166C153.157 203.904 126.886 194.492 103.991 177.663C81.0944 160.834 64.2687 138.57 56.6141 114.974C48.869 91.1022 51.4054 68.7008 63.7542 51.8997C76.1032 35.0987 96.7117 25.9745 121.821 26.2567C146.628 26.5198 172.898 35.932 195.793 52.7597C218.691 69.5875 235.514 91.8516 243.17 115.451C250.916 139.322 248.38 161.722 236.031 178.523C223.856 195.087 203.642 204.171 179.029 204.172Z" fill="#6D184E"/>
<path d="M195.936 121.921C186.448 134.828 164.199 134.593 146.242 121.394C131.158 110.307 123.904 93.6025 127.59 80.8888C127.849 80.2021 132.775 67.5598 142.14 78.2227C151.765 89.182 153.585 91.0864 165.325 87.5946C177.065 84.1048 169.924 105.622 181.778 107.47C193.632 109.318 199.835 111.02 195.936 121.921M195.428 52.2813C172.995 35.7945 148.048 26.9254 125.283 25.7077L125.294 25.6983C94.3075 21.6062 75.8938 32.5129 67.0156 43.4216C59.0552 53.1988 58.7602 62.9798 63.941 61.9498C65.7683 61.5858 67.3353 61.507 68.687 61.6214C68.5498 62.2669 68.4119 62.9104 68.2917 63.5802C62.795 94.2779 95.8635 100.102 83.33 119.795C70.7963 139.487 86.7609 149.284 99.525 140.808L99.6143 140.749C105.3 137.036 113.055 139.288 115.962 145.426C117.4 148.464 118.54 152.119 118.41 155.938C118.015 167.598 115.85 177.249 131.704 176.905C136.38 176.805 138.448 171.202 137.235 166.653C134.496 156.362 147.919 153.914 153.131 160.787C154.373 162.424 155.274 164.148 155.619 165.786C156.161 170.713 155.417 176.38 153.279 181.726C148.06 194.787 140.904 223.103 161.993 225.399C172.727 226.566 172.948 214.671 172.684 202.776C172.431 191.3 171.723 179.825 179.572 180.079C195.552 180.596 197.233 188.544 212.104 177.649C226.974 166.754 234.8 159.463 241.13 162.779C247.461 166.096 247.53 141.011 247.53 141.011C247.273 110.798 228.373 76.4965 195.428 52.2813Z" fill="#FF33BB"/>
<path d="M105.01 87.8318C104.206 87.8318 103.424 87.5812 102.758 87.1052C101.915 86.5015 101.358 85.6047 101.188 84.5817L99.6094 75.0396C99.2587 72.9275 100.693 70.9242 102.805 70.5743C103.019 70.5396 103.234 70.5222 103.446 70.5222C104.252 70.5222 105.032 70.7713 105.699 71.2489C106.543 71.8525 107.1 72.7478 107.269 73.7707L108.849 83.3145C109.018 84.3374 108.78 85.3651 108.176 86.2083C107.571 87.0516 106.676 87.6095 105.653 87.7782C105.439 87.8144 105.223 87.8318 105.01 87.8318" fill="#D32B9A"/>
<path d="M146.97 66.4153C145.964 66.4153 145.016 66.035 144.288 65.337L137.3 58.6496C135.753 57.1691 135.699 54.7067 137.18 53.1603C137.898 52.4116 138.863 51.9857 139.899 51.9637C139.933 51.9621 139.966 51.9621 139.999 51.9621C141.002 51.9621 141.944 52.3457 142.669 53.0403L149.657 59.7278C151.203 61.2083 151.258 63.6707 149.777 65.217C149.059 65.9657 148.094 66.3916 147.056 66.4136C147.027 66.4153 146.999 66.4153 146.97 66.4153" fill="#D32B9A"/>
<path d="M193.848 100.601C192.399 100.316 190.822 100.057 189.13 99.7929C184.98 99.1461 183.157 96.0846 182.037 92.5304C182.193 91.2674 182.965 90.1035 184.192 89.5056C184.737 89.2417 185.315 89.1166 185.884 89.1166C187.324 89.1166 188.711 89.919 189.382 91.2979L193.613 99.9973C193.709 100.194 193.787 100.397 193.848 100.601" fill="#D32B9A"/>
<path d="M124.19 138.522C124.071 138.522 123.951 138.517 123.832 138.507C123.771 138.501 123.711 138.493 123.651 138.486C123.541 138.236 123.429 137.991 123.314 137.749C122.591 136.221 121.567 134.934 120.35 133.92L121.19 124.656C121.372 122.64 123.07 121.125 125.058 121.125C125.173 121.125 125.29 121.13 125.406 121.14C126.439 121.234 127.373 121.724 128.038 122.52C128.702 123.317 129.016 124.325 128.922 125.358L128.049 134.99C127.955 136.023 127.464 136.958 126.668 137.623C125.964 138.209 125.095 138.522 124.19 138.522Z" fill="#D32B9A"/>
<path d="M97.3464 119.554C96.0541 119.554 94.7903 118.911 94.0534 117.739C92.9142 115.927 93.4615 113.525 95.2752 112.386L103.464 107.238C104.104 106.835 104.818 106.644 105.524 106.644C106.816 106.644 108.081 107.287 108.818 108.459C109.957 110.271 109.409 112.673 107.596 113.812L99.4067 118.96C98.7673 119.362 98.0521 119.554 97.3464 119.554Z" fill="#D32B9A"/>
<path d="M170.41 171.919C169.119 171.919 167.854 171.277 167.117 170.104C165.979 168.292 166.526 165.891 168.338 164.751L176.527 159.603C177.168 159.201 177.881 159.009 178.587 159.009C179.88 159.009 181.144 159.652 181.88 160.825C183.02 162.637 182.473 165.039 180.661 166.178L172.47 171.325C171.831 171.728 171.116 171.919 170.41 171.919Z" fill="#D32B9A"/>
<path d="M198.357 149.212C197.83 149.212 197.307 149.104 196.81 148.887C195.858 148.474 195.125 147.714 194.745 146.75L191.2 137.75C190.82 136.786 190.839 135.729 191.252 134.779C191.667 133.828 192.426 133.095 193.391 132.714C193.852 132.533 194.333 132.443 194.814 132.443C195.339 132.443 195.865 132.55 196.362 132.767C197.311 133.181 198.045 133.939 198.425 134.904L201.97 143.906C202.35 144.869 202.333 145.925 201.918 146.874C201.504 147.827 200.746 148.559 199.78 148.939C199.319 149.121 198.837 149.212 198.357 149.212Z" fill="#D32B9A"/>
<path d="M179.728 74.2732C179.366 74.2732 179.002 74.2214 178.645 74.1179L169.352 71.4349C167.295 70.8397 166.106 68.6839 166.7 66.6267C167.191 64.9286 168.747 63.8223 170.434 63.8223C170.788 63.8223 171.149 63.8709 171.506 63.9744L180.801 66.6591C182.856 67.2542 184.047 69.41 183.453 71.4656C183.165 72.4635 182.507 73.2867 181.598 73.788C181.016 74.1098 180.375 74.2732 179.728 74.2732" fill="#D32B9A"/>
<path d="M214.702 121.624C214.346 121.624 213.984 121.575 213.627 121.471L204.334 118.787C203.337 118.498 202.513 117.839 202.01 116.932C201.876 116.685 201.768 116.43 201.689 116.168C202.256 115.563 202.79 114.921 203.289 114.243C203.657 113.215 203.935 112.267 204.127 111.395C204.535 111.251 204.97 111.174 205.414 111.174C205.768 111.174 206.131 111.222 206.489 111.326L215.78 114.011C217.838 114.606 219.027 116.761 218.433 118.819C217.942 120.517 216.387 121.624 214.702 121.624Z" fill="#D32B9A"/>
<path d="M223.075 162.98C223.024 162.98 222.973 162.979 222.919 162.977C221.885 162.936 220.926 162.494 220.222 161.733C219.517 160.972 219.152 159.982 219.193 158.946C219.233 157.909 219.675 156.951 220.435 156.247L227.537 149.679C228.263 149.01 229.193 148.648 230.176 148.648C230.226 148.648 230.275 148.648 230.325 148.651C231.361 148.69 232.32 149.132 233.024 149.894C234.478 151.465 234.382 153.927 232.809 155.38L225.707 161.948C224.985 162.616 224.055 162.98 223.075 162.98" fill="#D32B9A"/>
<path d="M204.758 97.635C203.925 97.635 203.118 97.3686 202.439 96.8609C201.608 96.2376 201.072 95.3294 200.924 94.3039C200.621 92.1843 202.097 90.2138 204.217 89.9105L213.791 88.5382C213.979 88.5114 214.165 88.498 214.349 88.498C215.184 88.498 215.991 88.7661 216.67 89.2755C217.499 89.8971 218.039 90.8053 218.185 91.8307C218.332 92.8579 218.071 93.88 217.449 94.7094C216.827 95.5388 215.919 96.0784 214.894 96.2242L205.318 97.5965C205.132 97.6233 204.944 97.635 204.758 97.635" fill="#D32B9A"/>
<path d="M141.818 150.394C141.796 150.394 141.774 150.394 141.751 150.394C140.714 150.376 139.747 149.956 139.025 149.21C137.537 147.672 137.578 145.209 139.118 143.721L146.07 136.996C146.823 136.269 147.797 135.908 148.769 135.908C149.785 135.908 150.801 136.302 151.559 137.089C152.281 137.833 152.669 138.816 152.651 139.852C152.635 140.889 152.215 141.858 151.469 142.578L144.516 149.302C143.786 150.007 142.829 150.394 141.818 150.394Z" fill="#D32B9A"/>
<path d="M114.902 60.8481C113.677 60.8481 112.47 60.2697 111.716 59.1926L106.168 51.2698C104.94 49.5173 105.367 47.0911 107.121 45.8632C107.797 45.3887 108.573 45.1619 109.342 45.1619C110.567 45.1619 111.774 45.7386 112.528 46.8157L118.076 54.7385C119.305 56.4928 118.876 58.919 117.123 60.1468C116.446 60.6196 115.671 60.8481 114.902 60.8481" fill="#D32B9A"/>
<path d="M99.4516 38.1218C99.3185 39.4541 98.7048 40.6745 97.8855 41.7337C91.241 50.3229 99.5122 69.8122 88.6072 70.7578C77.609 71.7089 78.3697 46.9437 85.642 38.897C94.8249 28.7318 100.063 31.9956 99.4516 38.1218Z" fill="#FF5CC9"/>
<path d="M222.372 121.159C222.372 121.159 223.023 135.208 208.227 142.925C193.432 150.64 221.8 155.474 230.095 140.322C238.389 125.17 224.136 112.565 222.372 121.159Z" fill="#FF5CC9"/>
<path d="M245.054 145.587C242.662 115.122 223.058 81.6007 190.297 57.5167C187.342 55.3467 184.351 53.3056 181.319 51.3824C180.171 50.6548 179.02 49.9492 177.865 49.2566C175.416 51.1908 171.975 52.239 168.24 52.239C165.64 52.239 162.897 51.7306 160.247 50.664C153.029 47.7516 148.921 41.6633 150.091 36.2659C149.374 36.0209 148.66 35.7796 147.945 35.5475C137.218 32.0437 126.53 30.0155 116.257 29.4684L116.27 29.4611C111.46 28.8274 106.938 28.5345 102.693 28.5345C100.749 28.5345 98.8635 28.5953 97.0352 28.7132C101.691 27.7258 106.829 27.1713 112.46 27.1713C116.322 27.1713 120.419 27.4329 124.748 27.9929C124.881 28.026 125.018 28.0445 125.158 28.0518C148.346 29.2934 172.808 38.5685 194.037 54.1732C225.323 77.1685 244.922 110.45 245.183 141.004C245.18 142.54 245.134 144.081 245.054 145.587" fill="#FF99DD"/>
<path d="M195.938 121.92H195.942H195.938ZM129.82 81.6338C126.381 93.6999 133.694 109.256 147.633 119.502C164.388 131.816 185.018 132.366 193.842 120.802C194.912 117.695 195.04 115.525 194.236 114.172C192.793 111.742 187.577 110.75 181.419 109.79C174.043 108.642 172.456 101.564 171.297 96.3956C170.655 93.527 169.988 90.5589 168.691 89.7981C168.126 89.4675 167.219 89.4825 165.996 89.8469C152.695 93.8013 150.086 90.8275 140.378 79.7722C138.83 78.0101 136.555 75.9831 134.524 76.3588C132.173 76.789 130.365 80.2362 129.82 81.6338M174.633 133.753C165.036 133.753 154.345 130.264 144.852 123.287C129.322 111.873 121.297 94.1695 125.336 80.2362C125.353 80.178 125.371 80.1216 125.393 80.0634C125.852 78.8423 128.407 72.7031 133.679 71.7394C137.051 71.1232 140.49 72.7839 143.906 76.6744C153.263 87.3278 154.24 88.4399 164.658 85.344C167.177 84.5945 169.334 84.7316 171.068 85.7479C174.124 87.5419 175.017 91.5189 175.881 95.368C177.154 101.047 178.212 104.537 182.14 105.15C190.011 106.376 195.775 107.569 198.273 111.772C199.887 114.488 199.847 117.963 198.149 122.711C198.072 122.925 197.965 123.128 197.83 123.312C192.715 130.272 184.218 133.753 174.633 133.753M144.999 154.566C148.623 154.566 152.479 156.039 155.004 159.368C156.531 161.384 157.512 163.379 157.918 165.3C157.935 165.376 157.946 165.452 157.954 165.529C158.557 171.006 157.672 177.067 155.463 182.598C151.059 193.615 147.638 209.349 152.498 217.435C154.474 220.723 157.664 222.564 162.248 223.064C164.423 223.299 166.043 222.9 167.196 221.839C170.722 218.6 170.497 209.278 170.296 201.052C170.082 192.178 169.879 183.795 173.826 179.883C175.34 178.379 177.299 177.654 179.649 177.732C185.272 177.914 189.256 178.984 192.457 179.844C198.44 181.451 201.735 182.336 210.717 175.755C212.939 174.128 214.972 172.605 216.935 171.131C228.494 162.467 235.486 157.226 242.158 160.666C243.734 159.145 245.157 150.013 245.185 141.004C244.922 110.451 225.325 77.1685 194.037 54.173C172.809 38.5696 148.347 29.2932 125.159 28.0515C125.019 28.044 124.882 28.0252 124.749 27.9933C90.3882 23.5392 70.8186 37.9948 64.4955 51.7571C62.2363 56.6752 62.7984 59.3634 63.158 59.6847C63.1529 59.6753 63.2701 59.6884 63.4847 59.6452C65.4042 59.2639 67.2215 59.1418 68.885 59.2808C69.5564 59.3371 70.172 59.679 70.5742 60.2201C70.9754 60.7611 71.1253 61.4486 70.9854 62.108L70.9715 62.1756C70.8443 62.773 70.7162 63.3723 70.605 63.996C68.0041 78.5173 74.6657 87.1042 80.5428 94.6805C86.6323 102.529 92.3843 109.944 85.3125 121.056C80.4473 128.698 79.7711 135.447 83.503 139.109C86.8578 142.398 93.0495 142.29 98.2276 138.853L98.3347 138.782C101.588 136.657 105.627 136.05 109.414 137.117C113.237 138.196 116.398 140.859 118.085 144.421C119.985 148.432 120.884 152.334 120.759 156.017C120.721 157.153 120.665 158.27 120.612 159.362C120.335 164.969 120.096 169.811 122.448 172.229C124.068 173.895 127.081 174.655 131.655 174.558C132.637 174.537 133.423 174.114 134.06 173.267C135.168 171.793 135.533 169.378 134.969 167.258C133.63 162.231 135.45 157.812 139.72 155.727C141.264 154.971 143.1 154.566 144.999 154.566M163.4 227.826C162.862 227.826 162.31 227.795 161.741 227.732C155.681 227.073 151.217 224.422 148.472 219.854C141.251 207.836 148.658 186.965 151.101 180.855C153.013 176.069 153.793 170.859 153.3 166.164C153.024 164.969 152.32 163.602 151.262 162.206C148.982 159.198 144.518 158.608 141.781 159.947C139.523 161.049 138.738 163.159 139.506 166.049C140.438 169.542 139.773 173.483 137.815 176.089C136.32 178.077 134.167 179.201 131.756 179.253C125.805 179.378 121.66 178.155 119.081 175.504C115.305 171.621 115.603 165.553 115.921 159.13C115.974 158.063 116.028 156.969 116.065 155.858C116.165 152.93 115.416 149.758 113.841 146.431C112.734 144.095 110.656 142.348 108.139 141.638C105.659 140.939 103.02 141.33 100.9 142.716L100.836 142.757C93.698 147.497 85.2221 147.372 80.215 142.46C74.782 137.132 75.206 128.187 81.3502 118.534C86.6472 110.211 82.7424 105.178 76.8317 97.5584C70.7817 89.7605 63.278 80.0878 65.8372 64.0223C65.3715 64.0786 64.8919 64.1538 64.4003 64.2533C62.2899 64.6723 60.4239 63.9753 59.2799 62.341C57.0286 59.1249 58.114 52.8617 62.0457 46.3863C64.6943 42.0262 70.9794 33.875 83.3264 28.2694C95.1967 22.8817 109.42 21.2323 125.603 23.3701C125.618 23.372 125.634 23.3739 125.648 23.3757C149.667 24.7152 174.934 34.3034 196.819 50.3895C229.275 74.2435 249.605 108.959 249.881 140.991C249.879 141.218 249.86 146.003 249.308 151.19C248.23 161.304 246.135 163.782 244.431 164.81C243.086 165.621 241.529 165.638 240.043 164.859C235.976 162.727 229.869 167.306 219.753 174.889C217.778 176.369 215.736 177.901 213.491 179.543C202.695 187.456 197.89 186.166 191.24 184.38C188.118 183.541 184.577 182.59 179.497 182.426C178.135 182.383 177.494 182.857 177.132 183.217C174.624 185.705 174.819 193.799 174.992 200.939C175.225 210.613 175.467 220.617 170.375 225.297C168.547 226.978 166.204 227.826 163.4 227.826" fill="#6D184E"/>
<path d="M185.815 108.149C185.745 108.137 185.674 108.124 185.604 108.111C185.674 108.124 185.745 108.137 185.815 108.149Z" fill="#6D184E"/>
<path d="M184.856 107.977C184.747 107.956 184.634 107.937 184.523 107.92C184.634 107.937 184.747 107.956 184.856 107.977Z" fill="#6D184E"/>
<path d="M182.84 107.639C182.49 107.583 182.137 107.526 181.777 107.471C182.137 107.526 182.49 107.583 182.84 107.639Z" fill="#6D184E"/>
<path d="M140.023 76.1362C139.917 76.0467 139.812 75.9603 139.707 75.8785C139.812 75.9603 139.917 76.0467 140.023 76.1362Z" fill="#6D184E"/>
<path d="M142.104 78.1819C141.855 77.8996 141.61 77.6388 141.367 77.3888C141.61 77.6388 141.855 77.8996 142.104 78.1819Z" fill="#6D184E"/>
<path d="M197.066 117.111C197.066 117.087 197.069 117.063 197.071 117.039C197.069 117.063 197.066 117.087 197.066 117.111Z" fill="#6D184E"/>
<path d="M197.071 115.75C197.07 115.733 197.066 115.716 197.066 115.699C197.066 115.716 197.07 115.733 197.071 115.75Z" fill="#6D184E"/>
<path d="M192.764 110.106C192.728 110.089 192.693 110.073 192.656 110.056C192.693 110.073 192.728 110.089 192.764 110.106Z" fill="#6D184E"/>
<path d="M190.068 109.125C189.987 109.103 189.907 109.079 189.826 109.056C189.907 109.079 189.987 109.103 190.068 109.125Z" fill="#6D184E"/>
<path d="M191.501 109.59C191.441 109.569 191.38 109.547 191.318 109.525C191.38 109.547 191.441 109.569 191.501 109.59Z" fill="#6D184E"/>
<path d="M186.74 108.33C186.613 108.304 186.482 108.278 186.354 108.253C186.482 108.278 186.613 108.304 186.74 108.33Z" fill="#6D184E"/>
<path d="M139.257 75.5378C139.146 75.459 139.036 75.3832 138.928 75.3105C139.036 75.3832 139.146 75.459 139.257 75.5378Z" fill="#6D184E"/>
<path d="M196.861 118.618C196.864 118.598 196.869 118.576 196.874 118.555C196.869 118.576 196.864 118.598 196.861 118.618Z" fill="#6D184E"/>
<path d="M141.208 77.2268C140.965 76.9805 140.723 76.7481 140.484 76.5341C140.723 76.7481 140.965 76.9805 141.208 77.2268Z" fill="#6D184E"/>
<path d="M136.297 74.1206C136.23 74.1051 136.164 74.0911 136.098 74.0786C136.164 74.0911 136.23 74.1051 136.297 74.1206Z" fill="#6D184E"/>
<path d="M134.744 73.9763C134.788 73.9748 134.83 73.9732 134.873 73.9716C134.83 73.9732 134.788 73.9748 134.744 73.9763ZM135.184 73.9732C135.124 73.9717 135.064 73.9701 135.005 73.9701C135.007 73.9701 135.009 73.9701 135.01 73.9701C135.036 73.9701 135.063 73.9716 135.089 73.9716C135.122 73.9716 135.152 73.9717 135.184 73.9732ZM135.001 73.9701C135.002 73.9701 135.004 73.9701 135.005 73.9701C135.004 73.9701 135.002 73.9701 135.001 73.9701Z" fill="#6D184E"/>
<path d="M196.689 119.425C196.693 119.409 196.697 119.394 196.7 119.378C196.697 119.394 196.693 119.409 196.689 119.425Z" fill="#6D184E"/>
<path d="M138.424 74.9949C138.319 74.9313 138.215 74.8724 138.111 74.8166C138.215 74.8724 138.319 74.9313 138.424 74.9949Z" fill="#6D184E"/>
<path d="M137.716 74.6223C137.632 74.5835 137.549 74.5463 137.465 74.509C137.549 74.5463 137.632 74.5835 137.716 74.6223Z" fill="#6D184E"/>
<path d="M136.858 74.2742C136.813 74.2602 136.768 74.2462 136.723 74.2322C136.768 74.2462 136.813 74.2602 136.858 74.2742Z" fill="#6D184E"/>
<path d="M196.988 117.847C196.991 117.822 196.994 117.799 196.998 117.776C196.994 117.799 196.991 117.822 196.988 117.847Z" fill="#6D184E"/>
<path d="M130.887 174.566C126.742 174.566 123.975 173.801 122.446 172.23C120.095 169.811 120.334 164.969 120.61 159.362C120.664 158.271 120.72 157.154 120.758 156.017C120.881 152.334 119.984 148.433 118.084 144.422C116.396 140.86 113.235 138.196 109.412 137.118C108.186 136.773 106.934 136.603 105.69 136.603C103.093 136.603 100.533 137.344 98.3333 138.781L98.226 138.853C95.5666 140.618 92.6409 141.505 89.9685 141.505C87.4372 141.505 85.1332 140.709 83.5016 139.108C79.7697 135.448 80.4459 128.698 85.311 121.056C92.3827 109.945 86.6308 102.53 80.5414 94.6806C74.6643 87.1042 68.0028 78.5173 70.6035 63.9964C70.7148 63.3732 70.8429 62.7742 70.97 62.1753L70.9839 62.1093C71.124 61.4495 70.974 60.7621 70.5727 60.2221C70.1707 59.6805 69.5549 59.3367 68.8835 59.2811C68.4406 59.2447 67.9878 59.2256 67.524 59.2256C66.246 59.2256 64.8923 59.3662 63.4831 59.6457C63.2687 59.6891 63.1515 59.6752 63.1564 59.6857C62.797 59.3645 62.2349 56.6752 64.4941 51.7585C65.6193 49.3089 67.1654 46.8349 69.1398 44.4512C66.9163 50.0884 67.5875 54.3471 70.5748 54.3454C70.8012 54.3454 71.0405 54.3228 71.2938 54.2724C72.6155 54.0086 73.8012 53.8957 74.8669 53.8957C75.275 53.8957 75.6662 53.9113 76.0396 53.9426C75.9026 54.5884 75.7656 55.2325 75.6455 55.9044C70.1477 86.6007 103.216 92.4254 90.6825 112.118C81.2285 126.971 87.9874 136.195 97.3571 136.193C100.41 136.193 103.742 135.214 106.879 133.13C106.907 133.111 106.937 133.09 106.967 133.073C108.845 131.846 110.948 131.269 113.028 131.269C115.678 131.269 118.291 132.205 120.35 133.92L120.315 134.288C120.223 135.321 120.536 136.33 121.201 137.127C121.826 137.875 122.69 138.354 123.652 138.486C124.926 141.37 125.883 144.747 125.763 148.259C125.404 158.879 123.577 167.83 135.227 169.085C135.268 170.659 134.855 172.208 134.058 173.267C133.421 174.114 132.635 174.537 131.652 174.558C131.393 174.563 131.138 174.566 130.887 174.566" fill="#D32B9A"/>
<path d="M123.653 138.485C122.691 138.355 121.826 137.875 121.202 137.126C120.538 136.329 120.223 135.321 120.317 134.288L120.35 133.919C121.568 134.934 122.592 136.22 123.315 137.748C123.43 137.99 123.543 138.236 123.653 138.485Z" fill="#B42583"/>
<path d="M130.901 176.914C115.926 176.914 118.024 167.397 118.412 155.938C118.542 152.119 117.401 148.463 115.963 145.426C114.016 141.315 109.895 138.947 105.677 138.947C103.597 138.947 101.493 139.522 99.6162 140.749C99.5863 140.769 99.5566 140.788 99.5266 140.808C96.3896 142.891 93.0599 143.87 90.0061 143.87C80.6364 143.87 73.8784 134.646 83.3316 119.795C95.8653 100.101 62.7957 94.2779 68.2934 63.5802C68.4136 62.9108 68.5516 62.2664 68.6886 61.6201C68.3142 61.5899 67.924 61.572 67.5158 61.572C66.4492 61.572 65.2635 61.686 63.9427 61.9477C63.6894 61.9993 63.4492 62.0242 63.2228 62.0242C57.8174 62.0242 59.9942 48.0667 73.2081 37.2496C71.3699 39.7473 70.0264 42.2077 69.1415 44.4509C67.1672 46.8347 65.621 49.3076 64.4959 51.7573C62.2366 56.6744 62.7987 59.3627 63.1581 59.6849C63.1532 59.676 63.2705 59.6885 63.4848 59.6458C64.8941 59.3663 66.2477 59.2238 67.5257 59.2238C67.9895 59.2238 68.4424 59.2434 68.8852 59.2808C69.5565 59.336 70.1723 59.6796 70.5745 60.2208C70.9756 60.762 71.1257 61.4492 70.9856 62.1079L70.9717 62.1756C70.8446 62.7737 70.7166 63.3719 70.6053 63.995C68.0045 78.5169 74.666 87.1051 80.5429 94.6803C86.6326 102.53 92.3844 109.945 85.3127 121.055C80.4477 128.698 79.7714 135.447 83.5034 139.108C85.1351 140.708 87.4389 141.504 89.9703 141.504C92.6428 141.504 95.5683 140.617 98.2277 138.853L98.3351 138.782C100.535 137.343 103.095 136.603 105.692 136.603C106.936 136.603 108.187 136.772 109.414 137.117C113.237 138.196 116.398 140.859 118.085 144.42C119.985 148.431 120.884 152.334 120.76 156.017C120.721 157.153 120.665 158.27 120.612 159.362C120.336 164.969 120.096 169.811 122.448 172.229C123.977 173.8 126.744 174.566 130.89 174.566C131.139 174.566 131.394 174.563 131.656 174.558C132.637 174.537 133.423 174.114 134.061 173.267C134.858 172.207 135.27 170.659 135.229 169.085C135.957 169.163 136.738 169.212 137.575 169.229C137.598 173.077 135.522 176.823 131.705 176.905C131.431 176.911 131.164 176.914 130.901 176.914" fill="#6D184E"/>
<path d="M199.294 118.362C199.689 115.727 199.347 113.581 198.272 111.773C195.773 107.57 190.01 106.377 182.14 105.149C178.21 104.537 177.153 101.046 175.879 95.3682C175.015 91.5198 174.123 87.5417 171.068 85.7473C170.068 85.1625 168.927 84.8677 167.66 84.8677C166.727 84.8677 165.725 85.0263 164.656 85.3452C161.45 86.2968 159.138 86.8512 157.201 86.8512C152.843 86.8512 150.381 84.0474 143.905 76.6743C141.157 73.5437 138.393 71.8566 135.66 71.6387C136.734 69.5848 138.983 66.2876 142.384 66.2876C144.366 66.2876 146.739 67.4075 149.495 70.5461C156.286 78.2813 159.191 81.5048 164.441 81.5048C166.63 81.5048 169.225 80.9441 172.678 79.9171C173.557 79.6559 174.33 79.5358 175.012 79.5358C180.259 79.5358 180.202 86.699 182.038 92.5308C181.95 93.2486 182.062 93.9984 182.401 94.6953L186.633 103.393C187.086 104.326 187.876 105.026 188.856 105.366C189.271 105.508 189.699 105.58 190.125 105.58C190.707 105.58 191.284 105.447 191.822 105.186C192.754 104.733 193.455 103.943 193.793 102.962C194.06 102.189 194.078 101.371 193.849 100.601C201.594 102.125 205.679 104.339 204.128 111.395C202.984 111.797 202.044 112.728 201.683 113.979C201.472 114.705 201.478 115.459 201.69 116.167C200.946 116.962 200.147 117.693 199.294 118.362" fill="#D32B9A"/>
<path d="M190.126 105.58C189.699 105.58 189.271 105.509 188.856 105.366C187.876 105.027 187.086 104.328 186.633 103.395L182.401 94.6966C182.062 93.9988 181.95 93.2492 182.039 92.5316C183.158 96.0844 184.979 99.1457 189.131 99.793C190.824 100.057 192.4 100.317 193.849 100.602C194.078 101.372 194.059 102.19 193.792 102.964C193.455 103.944 192.755 104.734 191.821 105.187C191.284 105.448 190.707 105.58 190.126 105.58" fill="#B42583"/>
<path d="M201.69 116.167C201.478 115.46 201.471 114.704 201.682 113.978C202.043 112.727 202.983 111.797 204.127 111.394C203.935 112.268 203.657 113.213 203.288 114.242C202.791 114.92 202.257 115.562 201.69 116.167Z" fill="#B42583"/>
<path d="M196.47 120.254V120.252C196.552 119.97 196.624 119.693 196.688 119.427C196.692 119.409 196.696 119.395 196.699 119.38C196.761 119.121 196.815 118.866 196.861 118.618C196.866 118.598 196.87 118.576 196.875 118.556C196.919 118.312 196.957 118.077 196.988 117.846C196.991 117.823 196.994 117.799 196.998 117.776C197.012 117.663 197.024 117.55 197.037 117.438C197.048 117.328 197.057 117.22 197.065 117.112C197.057 117.22 197.048 117.328 197.037 117.438C197.048 117.328 197.057 117.22 197.065 117.112C197.067 117.087 197.068 117.063 197.07 117.04C197.084 116.825 197.092 116.616 197.093 116.412C197.093 116.409 197.093 116.407 197.093 116.404C197.093 116.385 197.093 116.368 197.093 116.349C197.092 116.246 197.092 116.145 197.087 116.046C197.084 115.946 197.079 115.847 197.073 115.75C197.07 115.732 197.068 115.715 197.067 115.699C197.052 115.508 197.032 115.323 197.005 115.142C197.004 115.136 197.002 115.13 197.002 115.124C196.999 115.114 196.998 115.103 196.996 115.092C196.98 114.996 196.965 114.902 196.946 114.81C196.927 114.716 196.905 114.625 196.883 114.533V114.53C196.696 113.79 196.392 113.138 195.974 112.559C195.439 111.817 194.719 111.196 193.828 110.664C193.765 110.626 193.7 110.588 193.634 110.552C193.534 110.494 193.429 110.438 193.324 110.383C193.303 110.372 193.283 110.361 193.263 110.35C193.14 110.285 193.016 110.226 192.887 110.165C192.847 110.146 192.806 110.125 192.764 110.106C192.729 110.091 192.693 110.073 192.655 110.056C192.494 109.982 192.326 109.912 192.156 109.841C192.106 109.822 192.059 109.802 192.009 109.782C191.925 109.75 191.842 109.717 191.758 109.684C191.673 109.653 191.588 109.622 191.502 109.59C191.442 109.568 191.381 109.546 191.32 109.526C191.152 109.466 190.979 109.408 190.805 109.352C190.734 109.33 190.664 109.306 190.592 109.284C190.419 109.231 190.245 109.177 190.067 109.126C189.986 109.104 189.906 109.079 189.824 109.057C189.738 109.033 189.648 109.008 189.559 108.984C189.471 108.959 189.38 108.936 189.291 108.912C189.201 108.889 189.11 108.865 189.019 108.842C188.84 108.798 188.66 108.752 188.478 108.708C188.376 108.685 188.274 108.661 188.17 108.638C187.991 108.597 187.809 108.556 187.626 108.515C187.607 108.51 187.586 108.507 187.566 108.503C187.472 108.482 187.378 108.462 187.282 108.443C187.103 108.405 186.922 108.368 186.739 108.33C186.612 108.305 186.482 108.28 186.353 108.255C186.174 108.219 185.995 108.184 185.813 108.151C185.744 108.139 185.673 108.124 185.603 108.112C185.532 108.099 185.46 108.087 185.389 108.073C185.214 108.041 185.036 108.008 184.856 107.977C184.746 107.956 184.634 107.938 184.523 107.919C184.468 107.911 184.413 107.9 184.36 107.892C184.193 107.864 184.032 107.836 183.862 107.806C183.655 107.773 183.443 107.737 183.231 107.702C183.101 107.682 182.973 107.66 182.841 107.639C182.491 107.583 182.138 107.526 181.778 107.472C170.809 105.761 176.104 87.2132 167.658 87.2132C166.976 87.2132 166.203 87.334 165.326 87.5961C161.87 88.6224 159.277 89.1827 157.088 89.1827C151.84 89.1827 148.932 85.9593 142.14 78.2241C142.128 78.21 142.117 78.1959 142.104 78.1833C141.855 77.9008 141.61 77.6403 141.367 77.3908C141.313 77.3359 141.26 77.2794 141.208 77.226C140.963 76.9796 140.722 76.749 140.483 76.534C140.438 76.4932 140.391 76.4523 140.343 76.4115C140.237 76.3174 140.128 76.2248 140.023 76.1369C139.917 76.0475 139.811 75.9627 139.706 75.8796C139.669 75.8497 139.629 75.8168 139.59 75.787C139.479 75.7006 139.366 75.619 139.256 75.539C139.145 75.4605 139.035 75.3852 138.926 75.3115C138.864 75.2707 138.802 75.2314 138.741 75.1922C138.636 75.1247 138.529 75.0588 138.424 74.996C138.319 74.9333 138.214 74.8736 138.112 74.8187C138.063 74.7936 138.018 74.7732 137.971 74.7481C137.884 74.7041 137.801 74.6618 137.716 74.6225C137.633 74.5833 137.549 74.5456 137.465 74.5095C137.401 74.4813 137.334 74.4515 137.269 74.4264C137.13 74.3699 136.993 74.3212 136.856 74.2757C136.811 74.2616 136.765 74.2475 136.721 74.2333C136.684 74.2223 136.646 74.2114 136.61 74.2019C136.572 74.191 136.536 74.1816 136.5 74.1721C136.433 74.1533 136.365 74.1376 136.296 74.1203C136.23 74.1062 136.164 74.0921 136.097 74.0795C136.003 74.0607 135.907 74.0434 135.813 74.0293C135.684 74.0121 135.555 73.9964 135.43 73.9885C135.348 73.9822 135.267 73.976 135.185 73.9744C135.152 73.9728 135.121 73.9712 135.089 73.9712C135.063 73.9712 135.036 73.9712 135.009 73.9712C135.008 73.9712 135.006 73.9712 135.005 73.9712C135.003 73.9712 135.002 73.9712 135 73.9712C134.958 73.9712 134.915 73.9713 134.874 73.9728C134.83 73.9744 134.788 73.976 134.744 73.9775C134.808 73.7233 134.87 73.4659 134.943 73.2133C134.995 73.0752 135.234 72.4553 135.661 71.6392C138.393 71.8574 141.156 73.5444 143.904 76.6752C150.381 84.0494 152.843 86.8522 157.2 86.8522C159.138 86.8522 161.449 86.2983 164.657 85.3457C165.724 85.0271 166.727 84.8686 167.659 84.8686C168.927 84.8686 170.068 85.1636 171.066 85.749C174.122 87.5427 175.014 91.521 175.879 95.3689C177.152 101.047 178.21 104.538 182.139 105.151C190.009 106.378 195.773 107.57 198.272 111.773C199.347 113.582 199.687 115.728 199.295 118.363C198.405 119.061 197.462 119.692 196.47 120.254M196.688 119.427C196.624 119.693 196.552 119.97 196.47 120.252C196.552 119.97 196.624 119.693 196.688 119.427ZM196.861 118.618C196.815 118.866 196.761 119.121 196.699 119.38C196.761 119.121 196.815 118.866 196.861 118.618ZM197.093 116.412C197.092 116.616 197.084 116.825 197.07 117.04C197.084 116.825 197.092 116.616 197.093 116.412Z" fill="#6D184E"/>
<path d="M197.07 117.04C197.084 116.825 197.092 116.615 197.093 116.412C197.092 116.615 197.084 116.825 197.07 117.04Z" fill="#6D184E"/>
<path d="M197.067 115.699C197.051 115.509 197.033 115.323 197.005 115.142C197.033 115.323 197.051 115.509 197.067 115.699ZM197.005 115.142C197.004 115.136 197.002 115.13 197.002 115.124C197.002 115.13 197.004 115.136 197.005 115.142Z" fill="#6D184E"/>
<path d="M196.998 117.775C197.012 117.662 197.026 117.55 197.037 117.438C197.026 117.55 197.012 117.662 196.998 117.775ZM197.037 117.438C197.047 117.329 197.058 117.219 197.066 117.111C197.058 117.219 197.047 117.329 197.037 117.438Z" fill="#6D184E"/>
<path d="M196.996 115.091C196.98 114.997 196.963 114.903 196.945 114.809C196.963 114.903 196.98 114.997 196.996 115.091ZM196.945 114.809C196.926 114.716 196.906 114.625 196.883 114.534C196.906 114.625 196.926 114.716 196.945 114.809Z" fill="#6D184E"/>
<path d="M192.655 110.056C192.493 109.983 192.324 109.911 192.154 109.842C192.324 109.911 192.493 109.983 192.655 110.056Z" fill="#6D184E"/>
<path d="M193.828 110.663C193.763 110.625 193.701 110.588 193.635 110.552C193.701 110.588 193.763 110.625 193.828 110.663ZM193.635 110.552C193.533 110.494 193.429 110.437 193.324 110.382C193.429 110.437 193.533 110.494 193.635 110.552Z" fill="#6D184E"/>
<path d="M193.263 110.349C193.141 110.286 193.016 110.224 192.887 110.165C193.016 110.224 193.141 110.285 193.263 110.349ZM192.887 110.165C192.847 110.145 192.806 110.125 192.764 110.107C192.806 110.125 192.847 110.145 192.887 110.165Z" fill="#6D184E"/>
<path d="M196.471 120.252C196.552 119.968 196.623 119.694 196.688 119.425C196.623 119.694 196.552 119.968 196.471 120.252Z" fill="#6D184E"/>
<path d="M196.875 118.555C196.92 118.312 196.957 118.078 196.988 117.847C196.957 118.076 196.92 118.312 196.875 118.555Z" fill="#6D184E"/>
<path d="M196.697 119.381C196.761 119.12 196.815 118.867 196.861 118.618C196.815 118.867 196.761 119.12 196.697 119.381Z" fill="#6D184E"/>
<path d="M137.467 74.5088C137.4 74.4808 137.333 74.4514 137.27 74.425C137.333 74.4514 137.4 74.4808 137.467 74.5088Z" fill="#6D184E"/>
<path d="M136.099 74.0781C136.003 74.0595 135.908 74.0424 135.814 74.0284C135.908 74.0424 136.003 74.0595 136.099 74.0781Z" fill="#6D184E"/>
<path d="M136.722 74.2329C136.685 74.222 136.648 74.2112 136.61 74.2003C136.648 74.2112 136.685 74.222 136.722 74.2329ZM136.61 74.2003C136.575 74.191 136.537 74.1801 136.5 74.1708C136.537 74.1801 136.575 74.191 136.61 74.2003Z" fill="#6D184E"/>
<path d="M138.925 75.3113C138.864 75.271 138.803 75.2308 138.742 75.1921C138.803 75.2308 138.864 75.271 138.925 75.3113Z" fill="#6D184E"/>
<path d="M138.112 74.8169C138.064 74.7921 138.017 74.7719 137.971 74.7471C138.017 74.7719 138.064 74.7921 138.112 74.8169Z" fill="#6D184E"/>
<path d="M192.009 109.783C191.927 109.749 191.843 109.716 191.758 109.684C191.843 109.716 191.927 109.749 192.009 109.783ZM191.758 109.684C191.673 109.653 191.588 109.621 191.502 109.59C191.588 109.621 191.673 109.653 191.758 109.684Z" fill="#6D184E"/>
<path d="M139.708 75.8789C139.669 75.8496 139.63 75.8156 139.592 75.7863C139.63 75.8156 139.669 75.8496 139.708 75.8789Z" fill="#6D184E"/>
<path d="M196.882 114.531C196.697 113.789 196.391 113.138 195.974 112.56C196.391 113.138 196.697 113.789 196.882 114.531ZM195.974 112.56C195.439 111.816 194.719 111.195 193.828 110.663C194.719 111.195 195.439 111.816 195.974 112.56Z" fill="#6D184E"/>
<path d="M141.367 77.3896C141.313 77.3344 141.261 77.2791 141.207 77.2254C141.261 77.2791 141.313 77.3344 141.367 77.3896Z" fill="#6D184E"/>
<path d="M135.431 73.9873C135.349 73.9811 135.266 73.9749 135.186 73.9733C135.266 73.9749 135.349 73.9811 135.431 73.9873Z" fill="#6D184E"/>
<path d="M197.094 116.349C197.092 116.246 197.092 116.145 197.088 116.045C197.092 116.145 197.092 116.246 197.094 116.349ZM197.088 116.045C197.085 115.946 197.078 115.847 197.072 115.75C197.08 115.847 197.085 115.946 197.088 116.045Z" fill="#6D184E"/>
<path d="M188.171 108.638C187.99 108.596 187.81 108.556 187.625 108.514C187.81 108.556 187.99 108.596 188.171 108.638Z" fill="#6D184E"/>
<path d="M189.018 108.842C188.839 108.797 188.659 108.752 188.477 108.708C188.659 108.752 188.839 108.797 189.018 108.842Z" fill="#6D184E"/>
<path d="M140.484 76.5327C140.438 76.4911 140.391 76.4511 140.344 76.411C140.391 76.4511 140.438 76.4911 140.484 76.5327Z" fill="#6D184E"/>
<path d="M190.592 109.282C190.421 109.23 190.246 109.177 190.068 109.124C190.246 109.177 190.421 109.23 190.592 109.282Z" fill="#6D184E"/>
<path d="M191.322 109.524C191.154 109.464 190.982 109.406 190.807 109.351C190.982 109.406 191.154 109.464 191.322 109.524Z" fill="#6D184E"/>
<path d="M189.825 109.057C189.738 109.033 189.65 109.007 189.56 108.983C189.65 109.007 189.738 109.033 189.825 109.057ZM189.56 108.983C189.471 108.959 189.381 108.935 189.291 108.913C189.381 108.935 189.471 108.959 189.56 108.983Z" fill="#6D184E"/>
<path d="M187.284 108.441C187.104 108.404 186.924 108.366 186.74 108.329C186.924 108.366 187.104 108.404 187.284 108.441Z" fill="#6D184E"/>
<path d="M184.361 107.891C184.195 107.863 184.032 107.835 183.863 107.806C184.032 107.835 184.195 107.863 184.361 107.891Z" fill="#6D184E"/>
<path d="M183.231 107.703C183.1 107.681 182.971 107.66 182.84 107.638C182.971 107.66 183.1 107.681 183.231 107.703Z" fill="#6D184E"/>
<path d="M185.39 108.073C185.214 108.042 185.037 108.008 184.855 107.977C185.037 108.008 185.214 108.042 185.39 108.073Z" fill="#6D184E"/>
<path d="M186.352 108.254C186.173 108.22 185.994 108.184 185.812 108.15C185.994 108.184 186.173 108.22 186.352 108.254Z" fill="#6D184E"/>
<path d="M163.396 223.13C163.031 223.13 162.648 223.108 162.246 223.064C160.968 222.925 159.8 222.682 158.734 222.331C162.624 222.021 166.967 219.701 166.785 210.813C166.47 195.521 157.473 172.344 184.682 172.344C185.804 172.344 186.989 172.383 188.238 172.464C188.309 172.468 188.524 172.48 188.561 172.483L188.559 172.485C198.304 173.1 202.311 175.709 206.79 175.709C208.649 175.708 210.589 175.26 213.054 174.03C212.297 174.593 211.519 175.168 210.716 175.756C205.26 179.752 201.904 180.996 198.768 180.996C196.74 180.996 194.805 180.475 192.456 179.845C189.254 178.984 185.269 177.914 179.648 177.732C179.534 177.729 179.421 177.727 179.307 177.727C177.108 177.727 175.265 178.453 173.824 179.883C169.877 183.796 170.081 192.179 170.295 201.053C170.495 209.278 170.721 218.6 167.196 221.84C166.253 222.705 165.004 223.13 163.396 223.13M230.26 161.935C236.069 157.669 240.451 154.84 244.133 154.37C243.59 157.599 242.89 159.958 242.156 160.666C240.742 159.938 239.317 159.599 237.835 159.599C235.499 159.599 233.025 160.443 230.26 161.935Z" fill="#D32B9A"/>
<path d="M163.026 225.232C157.349 225.232 152.818 221.545 152.818 221.545C152.818 221.545 155.062 222.37 157.754 222.37C158.075 222.37 158.404 222.358 158.734 222.331C159.8 222.682 160.97 222.925 162.247 223.064C162.649 223.108 163.033 223.129 163.397 223.129C165.005 223.129 166.255 222.705 167.196 221.84C170.721 218.6 170.495 209.278 170.296 201.052C170.081 192.178 169.878 183.796 173.825 179.883C175.266 178.453 177.109 177.727 179.307 177.727C179.422 177.727 179.535 177.729 179.649 177.732C185.27 177.914 189.256 178.984 192.457 179.844C194.807 180.475 196.742 180.995 198.768 180.995C201.905 180.995 205.262 179.752 210.717 175.756C211.519 175.168 212.297 174.593 213.055 174.03C214.854 173.134 216.929 171.823 219.456 169.971C223.554 166.97 227.116 164.242 230.261 161.935C233.026 160.443 235.499 159.598 237.836 159.598C239.318 159.598 240.743 159.938 242.157 160.666C242.891 159.958 243.592 157.598 244.134 154.37C244.494 154.323 244.847 154.3 245.195 154.3C245.644 154.3 246.082 154.339 246.513 154.419C245.768 159.042 244.475 163.082 242.237 163.081C241.891 163.081 241.523 162.985 241.132 162.779C240.083 162.231 238.997 161.973 237.843 161.973C232.02 161.973 224.516 168.556 212.105 177.65C206.132 182.025 202.286 183.363 198.785 183.363C193.711 183.363 189.363 180.551 180.322 180.114C180.322 180.114 179.878 179.879 179.22 179.879C177.73 179.879 175.143 181.09 174.113 188.991C172.629 200.381 175.704 220.859 167.965 224.215C166.277 224.946 164.608 225.232 163.026 225.232" fill="#6D184E"/>
<path d="M103.968 69.1232C102.421 69.3786 101.374 70.8396 101.63 72.3863L103.21 81.9296C103.467 83.4763 104.927 84.5217 106.474 84.2663C108.022 84.0109 109.068 82.5483 108.811 81.0016L107.232 71.4598C106.977 69.9116 105.514 68.8662 103.968 69.1232" fill="#0DF4FF"/>
<path d="M104.433 70.1278C104.337 70.1278 104.238 70.1358 104.139 70.1517C103.666 70.2298 103.252 70.4879 102.973 70.8782C102.694 71.267 102.583 71.7434 102.661 72.215L104.241 81.7584C104.402 82.735 105.327 83.3946 106.306 83.2369C106.779 83.1588 107.193 82.9007 107.472 82.5104C107.751 82.12 107.861 81.6453 107.783 81.1721L106.204 71.6287C106.059 70.7524 105.295 70.1278 104.433 70.1278V70.1278ZM106.009 85.3479C104.146 85.3479 102.496 83.9968 102.182 82.0993L100.602 72.5559C100.433 71.533 100.672 70.5054 101.276 69.6626C101.88 68.8198 102.775 68.2622 103.798 68.0917C105.912 67.7428 107.913 69.1767 108.264 71.2877L109.843 80.8311C110.011 81.8556 109.772 82.8816 109.169 83.726C108.565 84.5688 107.669 85.1249 106.647 85.2953C106.433 85.3304 106.22 85.3479 106.009 85.3479" fill="#6D184E"/>
<path d="M138.928 51.3986C137.843 52.5312 137.882 54.3288 139.014 55.4122L146.002 62.101C147.135 63.1843 148.931 63.1452 150.016 62.0125C151.099 60.8799 151.06 59.0822 149.928 57.9989L142.94 51.3118C141.809 50.2268 140.011 50.2659 138.928 51.3986" fill="#0DF4FF"/>
<path d="M139.682 52.1208C138.998 52.8353 139.022 53.9728 139.738 54.6583L146.725 61.3466C147.439 62.0304 148.578 62.0049 149.262 61.2903C149.595 60.9441 149.772 60.4905 149.76 60.0096C149.75 59.5321 149.552 59.0853 149.208 58.7528L142.219 52.0645C141.873 51.7337 141.408 51.5478 140.939 51.5666C140.459 51.5768 140.013 51.7729 139.682 52.1208V52.1208ZM147.964 63.9302C146.999 63.9302 146.032 63.5738 145.282 62.8541L138.294 56.1658C136.747 54.6856 136.694 52.2231 138.173 50.6764C138.89 49.9278 139.856 49.5031 140.893 49.4793C141.923 49.4707 142.913 49.8391 143.664 50.557L150.65 57.2453C151.401 57.9615 151.825 58.9285 151.848 59.9653C151.87 61.0021 151.488 61.9861 150.77 62.7347C150.009 63.5294 148.988 63.9302 147.964 63.9302" fill="#6D184E"/>
<path d="M185.642 87.9629C184.233 88.6492 183.646 90.3473 184.332 91.7566L188.564 100.455C189.249 101.865 190.947 102.451 192.358 101.767C193.769 101.08 194.354 99.3808 193.669 97.9715L189.437 89.2728C188.751 87.8635 187.053 87.2766 185.642 87.9629Z" fill="#0DF4FF"/>
<path d="M185.642 87.9621H185.647H185.642ZM186.883 88.7192C186.615 88.7192 186.347 88.7806 186.099 88.9004V88.902C185.667 89.1108 185.345 89.4764 185.186 89.9279C185.031 90.3825 185.06 90.8693 185.269 91.2993L189.502 99.9981C189.935 100.889 191.012 101.261 191.901 100.827C192.792 100.394 193.163 99.3177 192.73 98.427L188.498 89.7298C188.289 89.2982 187.923 88.9757 187.47 88.819C187.278 88.7515 187.08 88.7192 186.883 88.7192ZM191.122 103.094C189.682 103.094 188.296 102.291 187.625 100.912L183.393 92.2131C182.939 91.2809 182.877 90.2274 183.214 89.2475C183.554 88.2677 184.254 87.4783 185.186 87.0237C186.119 86.5706 187.171 86.5061 188.152 86.8455C189.132 87.1834 189.921 87.8837 190.374 88.8175L194.607 97.5147C195.544 99.4391 194.739 101.767 192.815 102.704C192.269 102.97 191.692 103.094 191.122 103.094Z" fill="#6D184E"/>
<path d="M126.306 119.696C124.745 119.555 123.365 120.705 123.223 122.267L122.35 131.9C122.208 133.461 123.358 134.843 124.92 134.984C126.482 135.126 127.863 133.975 128.003 132.413L128.877 122.78C129.02 121.219 127.868 119.838 126.306 119.696" fill="#0DF4FF"/>
<path d="M126.046 120.728C125.627 120.728 125.225 120.873 124.9 121.144C124.532 121.452 124.305 121.884 124.261 122.36L123.388 131.995C123.345 132.472 123.49 132.939 123.797 133.306C124.104 133.674 124.536 133.901 125.014 133.944C125.997 134.04 126.874 133.304 126.964 132.318L127.837 122.686C127.881 122.208 127.736 121.743 127.428 121.373C127.12 121.005 126.688 120.778 126.211 120.736C126.156 120.73 126.101 120.728 126.046 120.728V120.728ZM125.178 136.04C125.063 136.04 124.943 136.035 124.824 136.023C123.792 135.93 122.858 135.44 122.195 134.644C121.529 133.846 121.217 132.839 121.309 131.807L122.183 122.173C122.375 120.041 124.269 118.467 126.4 118.657C127.433 118.752 128.368 119.24 129.032 120.037C129.696 120.834 130.01 121.841 129.916 122.875L129.042 132.507C128.86 134.521 127.163 136.04 125.178 136.04" fill="#6D184E"/>
<path d="M108.926 106.531C108.09 105.205 106.339 104.805 105.012 105.64L96.8221 110.787C95.4945 111.622 95.0957 113.373 95.9302 114.701C96.7634 116.028 98.5172 116.428 99.8434 115.594L108.033 110.447C109.361 109.611 109.761 107.859 108.926 106.531Z" fill="#FFD00D"/>
<path d="M106.52 106.249C106.193 106.249 105.863 106.337 105.567 106.522L97.3773 111.67C96.9722 111.924 96.6893 112.322 96.5836 112.791C96.4765 113.259 96.5589 113.74 96.8143 114.146C97.3402 114.982 98.4511 115.236 99.2887 114.71L107.478 109.562C108.316 109.035 108.568 107.924 108.042 107.087C107.702 106.546 107.117 106.249 106.52 106.249V106.249ZM98.3399 117.071C97.0477 117.071 95.7831 116.428 95.0457 115.256C94.4937 114.378 94.3179 113.339 94.5472 112.327C94.7793 111.315 95.389 110.454 96.2678 109.903L104.457 104.756C106.27 103.617 108.67 104.165 109.81 105.976C110.948 107.788 110.401 110.19 108.589 111.328L100.4 116.478C99.7597 116.88 99.0456 117.071 98.3399 117.071Z" fill="#6D184E"/>
<path d="M181.991 158.897C181.157 157.57 179.405 157.171 178.077 158.005L169.887 163.152C168.56 163.987 168.159 165.738 168.995 167.066C169.829 168.394 171.581 168.793 172.909 167.96L181.097 162.811C182.425 161.977 182.824 160.225 181.991 158.897" fill="#0DF4FF"/>
<path d="M179.583 158.612C179.249 158.612 178.922 158.707 178.632 158.889L170.442 164.036C170.036 164.291 169.755 164.689 169.647 165.157C169.541 165.625 169.622 166.105 169.878 166.51C170.133 166.916 170.532 167.2 170.999 167.306C171.465 167.413 171.945 167.331 172.353 167.076L180.542 161.929C181.38 161.402 181.634 160.291 181.108 159.453C180.851 159.047 180.454 158.765 179.986 158.659C179.852 158.628 179.718 158.612 179.583 158.612V158.612ZM171.405 169.439C171.115 169.439 170.825 169.408 170.535 169.341C169.524 169.111 168.662 168.5 168.111 167.622C167.559 166.745 167.382 165.705 167.612 164.692C167.843 163.681 168.454 162.82 169.332 162.269L177.521 157.122C178.399 156.569 179.439 156.393 180.45 156.624C181.462 156.854 182.322 157.465 182.875 158.343C184.013 160.155 183.465 162.556 181.653 163.696L173.463 168.843C172.838 169.237 172.127 169.439 171.405 169.439Z" fill="#6D184E"/>
<path d="M194.764 131.203C193.305 131.777 192.588 133.425 193.163 134.884L196.708 143.885C197.282 145.344 198.931 146.059 200.39 145.486C201.849 144.911 202.565 143.263 201.991 141.804L198.446 132.804C197.871 131.346 196.223 130.629 194.764 131.203Z" fill="#FFD00D"/>
<path d="M195.148 132.174C194.703 132.35 194.352 132.689 194.16 133.129C193.968 133.568 193.96 134.055 194.136 134.502L197.68 143.502C198.043 144.423 199.088 144.876 200.008 144.514C200.455 144.338 200.806 143.999 200.996 143.56C201.188 143.12 201.198 142.632 201.022 142.186L197.476 133.186C197.3 132.739 196.961 132.388 196.523 132.198C196.082 132.006 195.595 131.997 195.148 132.174ZM199.356 146.726C197.807 146.726 196.341 145.793 195.739 144.267L192.195 135.267C191.409 133.275 192.391 131.016 194.383 130.231C195.348 129.851 196.404 129.87 197.354 130.283C198.306 130.698 199.039 131.457 199.419 132.421L202.963 141.421C203.343 142.385 203.324 143.442 202.911 144.392C202.498 145.344 201.739 146.077 200.775 146.457C200.309 146.639 199.828 146.726 199.356 146.726" fill="#6D184E"/>
<path d="M168.696 64.4333C168.261 65.9409 169.129 67.5136 170.635 67.9483L179.93 70.633C181.434 71.0694 183.009 70.2016 183.443 68.694C183.878 67.188 183.01 65.6136 181.504 65.1789L172.211 62.4942C170.705 62.0595 169.131 62.9273 168.696 64.4333Z" fill="#FFD00D"/>
<path d="M169.698 64.7252C169.423 65.6753 169.973 66.6728 170.925 66.9475L180.217 69.6308C181.167 69.9072 182.165 69.3561 182.441 68.4061C182.572 67.9449 182.52 67.4593 182.288 67.0407C182.055 66.6204 181.674 66.3163 181.215 66.1822L171.92 63.4988C170.97 63.2241 169.973 63.7735 169.698 64.7252ZM180.714 71.7893C180.358 71.7893 179.997 71.7402 179.639 71.6372L170.346 68.9522C168.289 68.3587 167.098 66.2018 167.692 64.1464C168.287 62.0893 170.444 60.9005 172.499 61.4924L181.794 64.1774C182.79 64.4652 183.614 65.1226 184.116 66.0318C184.616 66.9393 184.734 67.9875 184.446 68.9849C183.955 70.6839 182.399 71.7893 180.714 71.7893" fill="#6D184E"/>
<path d="M203.679 111.785C203.244 113.293 204.112 114.866 205.618 115.301L214.91 117.985C216.416 118.42 217.991 117.552 218.425 116.046C218.86 114.54 217.992 112.967 216.486 112.53L207.194 109.846C205.686 109.411 204.113 110.279 203.679 111.785Z" fill="#0DF4FF"/>
<path d="M204.682 112.074C204.408 113.025 204.957 114.023 205.908 114.298L215.201 116.982C216.152 117.259 217.149 116.706 217.423 115.755C217.698 114.806 217.149 113.808 216.198 113.533L206.905 110.849C205.955 110.574 204.957 111.124 204.682 112.074V112.074ZM215.697 119.14C215.341 119.14 214.98 119.091 214.621 118.989L205.328 116.303C203.271 115.709 202.083 113.551 202.676 111.496C203.271 109.439 205.428 108.252 207.483 108.842L216.776 111.527C218.833 112.122 220.023 114.28 219.43 116.335C218.939 118.033 217.383 119.14 215.697 119.14" fill="#6D184E"/>
<path d="M221.981 158.542C223.045 159.693 224.84 159.763 225.993 158.699L233.094 152.132C234.246 151.067 234.315 149.272 233.251 148.119C232.186 146.968 230.39 146.899 229.239 147.963L222.137 154.531C220.988 155.595 220.917 157.391 221.981 158.542Z" fill="#FFD52B"/>
<path d="M231.165 148.252C230.712 148.252 230.283 148.419 229.948 148.729L222.847 155.296C222.12 155.968 222.076 157.106 222.749 157.833C223.42 158.56 224.558 158.605 225.285 157.933L232.386 151.366C233.113 150.693 233.157 149.555 232.486 148.829C232.16 148.476 231.717 148.271 231.238 148.254C231.213 148.252 231.189 148.252 231.165 148.252ZM224.067 160.495C223.021 160.495 221.979 160.077 221.216 159.25C219.762 157.68 219.859 155.218 221.429 153.764L228.531 147.196C229.293 146.492 230.281 146.126 231.318 146.168C232.356 146.209 233.314 146.649 234.017 147.411C235.47 148.984 235.374 151.444 233.804 152.898L226.702 159.465C225.956 160.154 225.01 160.495 224.067 160.495Z" fill="#6D184E"/>
<path d="M202.951 91.6726C203.174 93.2244 204.612 94.3036 206.164 94.0807L215.739 92.7099C217.289 92.487 218.369 91.0475 218.146 89.4973C217.923 87.9439 216.485 86.8663 214.933 87.0892L205.358 88.46C203.806 88.6829 202.728 90.1207 202.951 91.6726Z" fill="#FFD52B"/>
<path d="M215.339 88.1033C215.253 88.1033 215.167 88.11 215.08 88.1235L205.505 89.4948C204.524 89.6345 203.843 90.5465 203.983 91.5258C204.052 92.0003 204.299 92.4193 204.683 92.707C205.066 92.9947 205.539 93.1159 206.014 93.0469L215.59 91.6755C216.569 91.5359 217.252 90.6239 217.112 89.6446C217.043 89.1701 216.796 88.7511 216.411 88.4617C216.098 88.2278 215.724 88.1033 215.339 88.1033V88.1033ZM205.751 95.1536C204.918 95.1536 204.109 94.886 203.431 94.3779C202.601 93.7553 202.063 92.8483 201.916 91.8202C201.613 89.7035 203.089 87.7314 205.209 87.4268L214.784 86.0555C215.81 85.9108 216.833 86.1699 217.663 86.7925C218.492 87.4151 219.031 88.322 219.177 89.3484C219.482 91.4669 218.004 93.439 215.886 93.7418L206.31 95.1132C206.123 95.1401 205.936 95.1536 205.751 95.1536" fill="#6D184E"/>
<path d="M140.769 146.002C141.858 147.129 143.656 147.159 144.784 146.07L151.735 139.344C152.863 138.254 152.894 136.458 151.803 135.33C150.714 134.204 148.916 134.173 147.789 135.264L140.835 141.988C139.71 143.078 139.678 144.875 140.769 146.002Z" fill="#FFD52B"/>
<path d="M141.52 145.278C142.208 145.989 143.347 146.007 144.058 145.319L151.011 138.595C151.722 137.907 151.742 136.768 151.055 136.057C150.72 135.712 150.273 135.518 149.793 135.509C149.309 135.488 148.86 135.68 148.516 136.014L141.563 142.738C140.85 143.428 140.831 144.565 141.52 145.278V145.278ZM142.812 147.912C142.79 147.912 142.768 147.911 142.745 147.911C141.709 147.894 140.74 147.474 140.019 146.728C138.531 145.189 138.572 142.726 140.112 141.238L147.064 134.513C147.81 133.793 148.785 133.388 149.829 133.423C150.865 133.44 151.834 133.86 152.555 134.606C154.043 136.146 154 138.607 152.463 140.095L145.509 146.819C144.78 147.525 143.825 147.912 142.812 147.912" fill="#6D184E"/>
<path d="M117.517 56.809C118.802 55.9096 119.114 54.1388 118.214 52.856L112.667 44.9325C111.767 43.6479 109.997 43.3359 108.712 44.2353C107.428 45.1347 107.116 46.9038 108.016 48.1883L113.563 56.1118C114.463 57.3964 116.233 57.7084 117.517 56.809Z" fill="#FFD52B"/>
<path d="M110.336 44.7648C109.972 44.7648 109.616 44.8749 109.311 45.0898C108.918 45.3642 108.656 45.7767 108.572 46.2486C108.489 46.7205 108.595 47.1976 108.87 47.5891L114.418 55.5134C114.693 55.9049 115.104 56.1671 115.577 56.2509C116.049 56.3348 116.525 56.2282 116.917 55.9538H116.918C117.311 55.6794 117.573 55.267 117.656 54.7951C117.74 54.3232 117.633 53.846 117.359 53.4546L111.811 45.5303C111.536 45.137 111.124 44.8749 110.652 44.7927C110.547 44.7735 110.441 44.7648 110.336 44.7648V44.7648ZM115.897 58.3657C115.67 58.3657 115.442 58.3483 115.214 58.3063C114.193 58.1263 113.304 57.56 112.708 56.7106L107.16 48.7863C106.565 47.9369 106.337 46.9075 106.517 45.8851C106.697 44.8644 107.264 43.973 108.114 43.3805C108.963 42.7846 109.994 42.5556 111.015 42.7356C112.035 42.9174 112.925 43.4837 113.52 44.3331L119.068 52.2573C119.663 53.1068 119.892 54.1362 119.712 55.1586C119.532 56.1793 118.965 57.0689 118.115 57.6631C117.455 58.1245 116.686 58.3657 115.897 58.3657" fill="#6D184E"/>
<path d="M151.274 279.705C100.402 279.705 59.1621 274.89 59.1621 268.95C59.1621 263.011 100.402 258.195 151.274 258.195C202.144 258.195 243.384 263.011 243.384 268.95C243.384 274.89 202.144 279.705 151.274 279.705Z" fill="#F2A40C"/>
</svg>
