<?xml version="1.0" standalone="no"?>
<!DOCTYPE svg PUBLIC "-//W3C//DTD SVG 20010904//EN"
 "http://www.w3.org/TR/2001/REC-SVG-20010904/DTD/svg10.dtd">
<svg version="1.0" xmlns="http://www.w3.org/2000/svg"
 width="326.000000pt" height="326.000000pt" viewBox="0 0 326.000000 326.000000"
 preserveAspectRatio="xMidYMid meet">
<metadata>
Created by potrace 1.14, written by Peter Selinger 2001-2017
</metadata>
<g transform="translate(0.000000,326.000000) scale(0.100000,-0.100000)"
fill="#000000" stroke="none">
<path d="M1322 2970 c-530 -115 -893 -581 -869 -1118 l5 -124 -35 -31 c-45
-40 -63 -76 -63 -130 0 -48 25 -91 60 -102 18 -6 18 -9 -10 -47 -17 -23 -30
-49 -30 -59 0 -51 26 -60 99 -34 l42 15 14 -33 c14 -32 14 -32 -24 -49 -49
-21 -71 -52 -71 -101 0 -47 27 -74 97 -97 l48 -17 7 -61 c11 -102 35 -126 122
-120 50 3 55 1 106 -45 30 -27 70 -57 90 -67 206 -105 540 -98 894 18 l114 37
18 -35 c56 -103 203 -108 264 -8 28 46 26 103 -4 133 l-24 24 94 52 c291 165
496 370 548 548 18 62 21 167 6 206 -8 21 -5 33 16 65 33 50 41 105 20 153
-15 37 -15 38 9 47 45 17 25 82 -43 141 -33 29 -39 40 -40 77 -2 56 -43 134
-89 169 -31 24 -47 28 -115 32 -73 3 -80 5 -89 28 -31 82 -172 244 -291 333
-121 91 -243 150 -398 191 -115 31 -355 35 -478 9z m323 -30 c133 -15 238 -45
350 -100 157 -76 273 -171 378 -311 93 -124 104 -170 62 -255 -42 -83 -108
-149 -213 -211 -252 -148 -557 -249 -828 -272 -113 -10 -292 0 -369 20 -150
40 -262 173 -281 332 -13 106 31 327 91 463 l26 59 -46 -45 c-100 -97 -212
-296 -254 -449 -46 -168 -50 -417 -6 -503 15 -31 15 -31 -5 -13 -36 33 -45 82
-45 250 1 177 16 256 75 399 158 379 521 627 945 645 17 0 71 -4 120 -9z
m1040 -624 c37 -40 61 -116 46 -145 -14 -26 -66 -45 -215 -77 -180 -39 -186
-45 -171 -179 5 -51 3 -67 -17 -105 -35 -68 -59 -76 -192 -60 l-109 13 -25
-28 c-18 -21 -22 -35 -17 -54 14 -56 17 -150 5 -185 -6 -19 -27 -49 -46 -66
-51 -44 -112 -42 -246 10 -57 22 -119 43 -139 46 -50 8 -95 -15 -148 -77 -90
-104 -200 -117 -307 -37 -60 45 -60 54 -3 50 64 -5 113 13 163 57 34 30 58 41
138 60 l98 24 80 -31 c148 -58 245 -37 298 63 8 17 18 54 21 84 l6 54 85 52
c47 28 103 54 124 58 53 8 82 30 107 80 12 23 64 86 116 140 52 55 99 109 104
121 7 15 29 27 77 41 78 22 112 51 112 95 0 39 15 38 55 -4z m120 -231 c19
-20 35 -39 35 -44 0 -5 -37 -14 -82 -21 -90 -13 -205 -46 -292 -85 -31 -14
-58 -25 -61 -25 -9 0 -17 92 -9 100 5 5 70 22 146 39 75 16 153 39 175 50 21
11 41 20 45 21 4 0 23 -16 43 -35z m-10 -140 c47 -46 26 -122 -47 -175 -22
-17 -45 -30 -50 -30 -6 0 -23 -9 -39 -21 -28 -20 -29 -23 -29 -108 0 -116 -4
-120 -145 -131 -145 -12 -176 -28 -265 -140 -63 -79 -114 -120 -150 -120 -14
0 -4 82 17 126 24 54 75 92 239 180 287 155 375 240 391 377 8 73 34 87 78 42z
m-45 -363 c-81 -153 -243 -296 -505 -447 -55 -32 -119 -66 -142 -76 -42 -18
-43 -18 -43 0 0 10 -3 32 -6 48 -6 30 -5 30 48 37 102 13 171 62 248 176 45
67 81 90 137 90 62 0 111 19 153 59 28 26 40 47 41 67 1 54 32 128 59 141 23
11 26 10 33 -12 7 -19 1 -38 -23 -83z m-2243 12 c3 -8 1 -29 -4 -47 -7 -25
-15 -33 -36 -35 -38 -5 -57 14 -57 53 0 41 5 45 52 45 26 0 41 -5 45 -16z
m363 -99 c57 -6 100 -22 100 -37 0 -4 -7 -8 -16 -8 -9 0 -48 -31 -88 -69 -39
-37 -81 -73 -93 -80 -32 -16 -108 -14 -123 4 -17 20 -6 87 17 100 9 6 40 31
68 57 27 26 57 46 65 43 8 -2 40 -6 70 -10z m791 -120 c106 -37 172 -46 230
-34 27 6 55 16 62 23 9 10 12 -6 13 -78 0 -63 6 -105 19 -136 25 -63 26 -123
2 -128 -15 -3 -18 0 -12 17 9 29 -2 59 -25 66 -11 3 -38 22 -61 41 l-41 34
-49 -45 c-27 -25 -60 -50 -74 -55 -39 -15 -132 -12 -164 4 -32 17 -98 86 -135
143 l-26 40 67 66 c77 78 87 80 194 42z m983 -41 c-54 -66 -164 -158 -284
-237 -119 -78 -334 -190 -358 -185 -9 2 45 33 120 70 182 91 364 213 468 315
47 45 86 83 88 83 2 0 -13 -20 -34 -46z m-733 -355 c-10 -11 -190 -67 -286
-90 -52 -12 -127 -22 -177 -23 -79 -1 -89 1 -112 23 -36 34 -34 66 7 92 41 25
81 20 165 -22 117 -60 222 -46 307 41 l38 39 32 -27 c18 -15 29 -30 26 -33z
m-894 -185 c143 -49 393 -44 621 11 84 21 209 58 265 80 35 14 16 -15 -20 -30
-138 -58 -391 -114 -553 -122 -204 -10 -394 41 -475 127 l-30 32 57 -36 c31
-19 92 -48 135 -62z m1050 65 c89 25 124 7 100 -52 -14 -32 -50 -67 -71 -67
-5 0 -2 8 7 18 25 27 21 32 -23 32 -30 0 -48 7 -75 31 -43 38 -45 51 -6 38 20
-7 41 -7 68 0z"/>
<path d="M2081 2596 c-14 -17 -7 -36 14 -36 22 0 29 20 13 36 -13 13 -16 13
-27 0z"/>
<path d="M1921 2406 c-8 -10 -7 -17 3 -26 17 -13 36 -6 36 15 0 19 -27 26 -39
11z"/>
<path d="M2293 2384 c-8 -21 13 -42 28 -27 13 13 5 43 -11 43 -6 0 -13 -7 -17
-16z"/>
<path d="M1375 2210 c-4 -7 -3 -16 3 -22 14 -14 45 -2 40 15 -6 16 -34 21 -43
7z"/>
<path d="M1890 2059 c0 -25 33 -22 38 4 2 12 -3 17 -17 17 -15 0 -21 -6 -21
-21z"/>
<path d="M1022 1993 c5 -26 38 -29 38 -4 0 15 -6 21 -21 21 -14 0 -19 -5 -17
-17z"/>
</g>
</svg>
